<svg xmlns="http://www.w3.org/2000/svg" id="그룹_4" width="79" height="17" viewBox="0 0 79 17">
    <defs>
        <style>
            .cls-1{fill:#174de5}
        </style>
    </defs>
    <g id="그룹_2">
        <path id="패스_1" d="M280.471 839.84a8.047 8.047 0 0 1-3.11-3.037 8.994 8.994 0 0 1 0-8.719 8.058 8.058 0 0 1 3.11-3.039 9.017 9.017 0 0 1 4.457-1.1 9.225 9.225 0 0 1 3.9.794 7.375 7.375 0 0 1 2.8 2.185q.189.243.354.495a1.7 1.7 0 0 1-1.422 2.622h-.069a1.73 1.73 0 0 1-1.47-.847 3.709 3.709 0 0 0-1.131-1.139 5.065 5.065 0 0 0-2.881-.794 5.255 5.255 0 0 0-2.632.666 4.792 4.792 0 0 0-1.845 1.846 5.662 5.662 0 0 0 0 5.333 4.772 4.772 0 0 0 1.845 1.857 5.255 5.255 0 0 0 2.632.666 5.138 5.138 0 0 0 2.1-.438 4.9 4.9 0 0 0 1.634-1.132 3.61 3.61 0 0 0 .462-.6 1.649 1.649 0 0 1 1.4-.826h.134a1.694 1.694 0 0 1 1.417 2.629c-.1.158-.216.314-.335.468a8.119 8.119 0 0 1-2.92 2.333 8.923 8.923 0 0 1-3.978.884 9.018 9.018 0 0 1-4.452-1.107z" class="cls-1" transform="translate(-276.234 -823.943)"/>
        <path id="패스_2" d="M301.675 828.944a5.682 5.682 0 0 1 2.213 2.174 6.571 6.571 0 0 1 0 6.275 5.682 5.682 0 0 1-2.213 2.174 6.873 6.873 0 0 1-6.381 0 5.676 5.676 0 0 1-2.214-2.174 6.579 6.579 0 0 1 0-6.275 5.676 5.676 0 0 1 2.214-2.174 6.882 6.882 0 0 1 6.381 0zm-5.2 3.1a3.581 3.581 0 0 0 0 4.429 2.757 2.757 0 0 0 4.009 0 3.577 3.577 0 0 0 0-4.429 2.757 2.757 0 0 0-4.009 0z" class="cls-1" transform="translate(-273.918 -823.354)"/>
        <path id="패스_3" d="M315.155 830.886l-3.216 8.342a1.655 1.655 0 0 1-1.545 1.058h-1.414a1.655 1.655 0 0 1-1.545-1.058l-3.216-8.342a1.648 1.648 0 0 1 1.544-2.238h.26a1.654 1.654 0 0 1 1.565 1.113l2.228 6.473 2.229-6.473a1.653 1.653 0 0 1 1.564-1.113 1.648 1.648 0 0 1 1.546 2.238z" class="cls-1" transform="translate(-272.211 -823.286)"/>
        <path id="패스_4" d="M317.58 839.569a5.352 5.352 0 0 1-2.014-2.174 7.209 7.209 0 0 1 0-6.275 5.352 5.352 0 0 1 2.014-2.174 5.58 5.58 0 0 1 2.95-.784 3.911 3.911 0 0 1 3.351 1.469 1.194 1.194 0 0 1 1.2-1.191h1.157a1.194 1.194 0 0 1 1.2 1.191v9.254a1.194 1.194 0 0 1-1.2 1.192h-1.157a1.194 1.194 0 0 1-1.2-1.192 3.909 3.909 0 0 1-3.351 1.47 5.581 5.581 0 0 1-2.95-.786zm5.582-3.1a3.54 3.54 0 0 0 0-4.429 2.654 2.654 0 0 0-2.074-.864 2.55 2.55 0 0 0-2.014.864 3.615 3.615 0 0 0 0 4.429 2.55 2.55 0 0 0 2.014.864 2.654 2.654 0 0 0 2.074-.862z" class="cls-1" transform="translate(-270.661 -823.354)"/>
        <path id="패스_5" d="M335.771 828.626a4.645 4.645 0 0 1 1.914 1.321l.015.017a1.216 1.216 0 0 1-.966 1.969h-.866a1.273 1.273 0 0 1-1.031-.48 1.372 1.372 0 0 0-.431-.365 2.717 2.717 0 0 0-1.346-.308 3.122 3.122 0 0 0-1.326.248q-.529.248-.529.645 0 .417.618.676a10.418 10.418 0 0 0 2.154.5 7.648 7.648 0 0 1 3.609 1.251 2.924 2.924 0 0 1 1.077 2.4 3.046 3.046 0 0 1-.738 2.026 4.738 4.738 0 0 1-1.993 1.349 7.7 7.7 0 0 1-2.752.478 7.394 7.394 0 0 1-2.742-.487 4.7 4.7 0 0 1-1.953-1.38c-.031-.038-.061-.075-.089-.114a1.231 1.231 0 0 1 .988-1.972h1.016a1.183 1.183 0 0 1 .937.5 1.546 1.546 0 0 0 .469.4 2.812 2.812 0 0 0 1.435.348 3.167 3.167 0 0 0 1.417-.278q.558-.279.557-.675 0-.417-.657-.706a9.219 9.219 0 0 0-2.154-.506 8.208 8.208 0 0 1-3.459-1.152 2.821 2.821 0 0 1-1.167-2.482 2.913 2.913 0 0 1 .708-1.947 4.561 4.561 0 0 1 1.924-1.29 7.672 7.672 0 0 1 2.712-.457 7.263 7.263 0 0 1 2.649.471z" class="cls-1" transform="translate(-268.795 -823.354)"/>
        <path id="패스_6" d="M344.776 832.11h-.787v7.08a1.523 1.523 0 0 1-1.525 1.519h-.5a1.522 1.522 0 0 1-1.525-1.519v-7.08h-.788a1.523 1.523 0 0 1-1.525-1.519 1.523 1.523 0 0 1 1.525-1.519h.788v-1.936a1.522 1.522 0 0 1 1.525-1.519h.5a1.523 1.523 0 0 1 1.525 1.519v1.936h.787a1.522 1.522 0 0 1 1.525 1.519 1.522 1.522 0 0 1-1.525 1.519z" class="cls-1" transform="translate(-267.301 -823.709)"/>
    </g>
</svg>
